REM DIRINDEX 1\3,1\4,1\5,1\6,1\2\7,1\2\8,1\2\9,1\10
REM DIRNAME cjc056,folder01,folder02,folder03,folder04,folder05,folder06,folder07,folder08,folder09
TITLE ""
FILE "2-06 Level 4-587-598.mp3" MP3
  TRACK 01 AUDIO
    TITLE "0:"
    INDEX 01 00:00:00
  TRACK 02 AUDIO
    TITLE "7:cjc056_2036"
    INDEX 01 00:00:07
  TRACK 03 AUDIO
    TITLE "0:"
    INDEX 01 00:01:15
  TRACK 04 AUDIO
    TITLE "8:cjc056_2037"
    INDEX 01 00:01:30
  TRACK 05 AUDIO
    TITLE "0:"
    INDEX 01 00:02:24
  TRACK 06 AUDIO
    TITLE "9:cjc056_2038"
    INDEX 01 00:02:36
  TRACK 07 AUDIO
    TITLE "0:"
    INDEX 01 00:03:72
  TRACK 08 AUDIO
    TITLE "7:cjc056_2039"
    INDEX 01 00:04:52
  TRACK 09 AUDIO
    TITLE "0:"
    INDEX 01 00:05:57
  TRACK 10 AUDIO
    TITLE "8:cjc056_2040"
    INDEX 01 00:05:71
  TRACK 11 AUDIO
    TITLE "0:"
    INDEX 01 00:07:05
  TRACK 12 AUDIO
    TITLE "9:cjc056_2041"
    INDEX 01 00:07:19
  TRACK 13 AUDIO
    TITLE "0:"
    INDEX 01 00:08:72
  TRACK 14 AUDIO
    TITLE "7:cjc056_2042"
    INDEX 01 00:09:49
  TRACK 15 AUDIO
    TITLE "0:"
    INDEX 01 00:11:03
  TRACK 16 AUDIO
    TITLE "8:cjc056_2043"
    INDEX 01 00:11:17
  TRACK 17 AUDIO
    TITLE "0:"
    INDEX 01 00:12:36
  TRACK 18 AUDIO
    TITLE "9:cjc056_2044"
    INDEX 01 00:12:50
  TRACK 19 AUDIO
    TITLE "0:"
    INDEX 01 00:15:52
  TRACK 20 AUDIO
    TITLE "7:cjc056_2045"
    INDEX 01 00:16:32
  TRACK 21 AUDIO
    TITLE "0:"
    INDEX 01 00:17:39
  TRACK 22 AUDIO
    TITLE "8:cjc056_2046"
    INDEX 01 00:17:53
  TRACK 23 AUDIO
    TITLE "0:"
    INDEX 01 00:19:01
  TRACK 24 AUDIO
    TITLE "9:cjc056_2047"
    INDEX 01 00:19:15
  TRACK 25 AUDIO
    TITLE "0:"
    INDEX 01 00:21:04
  TRACK 26 AUDIO
    TITLE "7:cjc056_2048"
    INDEX 01 00:21:57
  TRACK 27 AUDIO
    TITLE "0:"
    INDEX 01 00:22:56
  TRACK 28 AUDIO
    TITLE "8:cjc056_2049"
    INDEX 01 00:22:72
  TRACK 29 AUDIO
    TITLE "0:"
    INDEX 01 00:24:02
  TRACK 30 AUDIO
    TITLE "9:cjc056_2050"
    INDEX 01 00:24:16
  TRACK 31 AUDIO
    TITLE "0:"
    INDEX 01 00:26:15
  TRACK 32 AUDIO
    TITLE "7:cjc056_2051"
    INDEX 01 00:26:66
  TRACK 33 AUDIO
    TITLE "0:"
    INDEX 01 00:28:06
  TRACK 34 AUDIO
    TITLE "8:cjc056_2052"
    INDEX 01 00:28:17
  TRACK 35 AUDIO
    TITLE "0:"
    INDEX 01 00:29:33
  TRACK 36 AUDIO
    TITLE "9:cjc056_2053"
    INDEX 01 00:29:46
  TRACK 37 AUDIO
    TITLE "0:"
    INDEX 01 00:31:31
  TRACK 38 AUDIO
    TITLE "7:cjc056_2054"
    INDEX 01 00:32:09
  TRACK 39 AUDIO
    TITLE "0:"
    INDEX 01 00:33:11
  TRACK 40 AUDIO
    TITLE "8:cjc056_2055"
    INDEX 01 00:33:26
  TRACK 41 AUDIO
    TITLE "0:"
    INDEX 01 00:34:47
  TRACK 42 AUDIO
    TITLE "9:cjc056_2056"
    INDEX 01 00:34:61
  TRACK 43 AUDIO
    TITLE "0:"
    INDEX 01 00:36:52
  TRACK 44 AUDIO
    TITLE "7:cjc056_2057"
    INDEX 01 00:37:46
  TRACK 45 AUDIO
    TITLE "0:"
    INDEX 01 00:38:53
  TRACK 46 AUDIO
    TITLE "8:cjc056_2058"
    INDEX 01 00:38:69
  TRACK 47 AUDIO
    TITLE "0:"
    INDEX 01 00:40:17
  TRACK 48 AUDIO
    TITLE "9:cjc056_2059"
    INDEX 01 00:40:30
  TRACK 49 AUDIO
    TITLE "0:"
    INDEX 01 00:42:37
  TRACK 50 AUDIO
    TITLE "7:cjc056_2060"
    INDEX 01 00:43:13
  TRACK 51 AUDIO
    TITLE "0:"
    INDEX 01 00:44:28
  TRACK 52 AUDIO
    TITLE "8:cjc056_2061"
    INDEX 01 00:44:44
  TRACK 53 AUDIO
    TITLE "0:"
    INDEX 01 00:46:23
  TRACK 54 AUDIO
    TITLE "9:cjc056_2062"
    INDEX 01 00:46:37
  TRACK 55 AUDIO
    TITLE "0:"
    INDEX 01 00:48:48
  TRACK 56 AUDIO
    TITLE "7:cjc056_2063"
    INDEX 01 00:49:25
  TRACK 57 AUDIO
    TITLE "0:"
    INDEX 01 00:50:29
  TRACK 58 AUDIO
    TITLE "8:cjc056_2064"
    INDEX 01 00:50:44
  TRACK 59 AUDIO
    TITLE "0:"
    INDEX 01 00:51:44
  TRACK 60 AUDIO
    TITLE "9:cjc056_2065"
    INDEX 01 00:51:56
  TRACK 61 AUDIO
    TITLE "0:"
    INDEX 01 00:53:70
  TRACK 62 AUDIO
    TITLE "7:cjc056_2066"
    INDEX 01 00:54:46
  TRACK 63 AUDIO
    TITLE "0:"
    INDEX 01 00:55:53
  TRACK 64 AUDIO
    TITLE "8:cjc056_2067"
    INDEX 01 00:55:65
  TRACK 65 AUDIO
    TITLE "0:"
    INDEX 01 00:56:72
  TRACK 66 AUDIO
    TITLE "9:cjc056_2068"
    INDEX 01 00:57:11
  TRACK 67 AUDIO
    TITLE "0:"
    INDEX 01 00:59:32
  TRACK 68 AUDIO
    TITLE "7:cjc056_2069"
    INDEX 01 01:00:12
  TRACK 69 AUDIO
    TITLE "0:"
    INDEX 01 01:01:15
  TRACK 70 AUDIO
    TITLE "8:cjc056_2070"
    INDEX 01 01:01:29
  TRACK 71 AUDIO
    TITLE "0:"
    INDEX 01 01:02:18
  TRACK 72 AUDIO
    TITLE "9:cjc056_2071"
    INDEX 01 01:02:30
  TRACK 73 AUDIO
    TITLE "0:"
    INDEX 01 01:05:03
